
<svg xmlns="http://www.w3.org/2000/svg" width="1100" height="600" viewBox="0 0 1100 600">
  <defs>
    <style>
      .bg{fill:#f7f8fb}
      .card{fill:#fff;stroke:#e6e9ee}
      .header{fill:#7d6df0}
      .text{fill:#2b2d42;font:600 20px sans-serif}
      .muted{fill:#6c7685;font:14px sans-serif}
      .field{fill:#ffffff;stroke:#e6e9ee}
      .btn{fill:#6c5ce7}
      .btnText{fill:#fff;font:14px sans-serif}
    </style>
  </defs>
  <rect class="bg" x="0" y="0" width="1100" height="600"/>
  <rect class="header" x="0" y="0" width="1100" height="80"/>
  <text x="550" y="50" text-anchor="middle" class="text" fill="#fff">Allocate Room — Form</text>
  <rect class="card" x="50" y="110" width="1000" height="420" rx="12"/>
  <text x="70" y="145" class="text">Guest • Payment • Stay</text>
  <rect class="field" x="70" y="170" width="960" height="34" rx="8"/>
  <rect class="field" x="70" y="210" width="960" height="34" rx="8"/>
  <rect class="field" x="70" y="250" width="960" height="34" rx="8"/>
  <rect class="field" x="70" y="290" width="960" height="34" rx="8"/>
  <rect class="field" x="70" y="330" width="460" height="34" rx="8"/>
  <rect class="field" x="570" y="330" width="460" height="34" rx="8"/>
  <rect class="field" x="70" y="370" width="460" height="34" rx="8"/>
  <rect class="field" x="570" y="370" width="460" height="34" rx="8"/>
  <rect class="btn" x="870" y="420" width="160" height="34" rx="8"/>
  <text x="950" y="443" text-anchor="middle" class="btnText">Save Allocation</text>
</svg>
